<svg id="svg3919" xmlns="http://www.w3.org/2000/svg" width="9.7mm" height="9.7mm" viewBox="0 0 27.5 27.5"><title>icon_xmmp</title><rect x="0.94" y="11.42" width="9.36" height="4.65" rx="2.32" fill="#c40005"/><rect x="19.56" y="0.77" width="6.7" height="3.33" rx="1.66" fill="#575756"/><rect x="19.56" y="12.08" width="6.7" height="3.33" rx="1.66" fill="#575756"/><rect x="19.56" y="23.59" width="6.7" height="3.33" rx="1.66" fill="#575756"/><path d="M15.54,3.08h2.33V1.8H15.54a3.72,3.72,0,0,0-3.73,3.72V22.18a3.73,3.73,0,0,0,3.73,3.72h2.33V24.61H15.54a2.43,2.43,0,0,1-2.44-2.43V14.49h4.77V13.2H13.1V5.52A2.44,2.44,0,0,1,15.54,3.08Z" fill="#575756"/></svg>